<svg xmlns="http://www.w3.org/2000/svg" viewBox="0 0 64 64" role="img" aria-label="Skull">
  <rect width="64" height="64" rx="14" fill="#0f172a"/>

  <!-- Crossbones behind the skull -->
  <g fill="#cbd5e1" stroke="#0f172a" stroke-width="1.5">
    <g transform="translate(32 46) rotate(-30)">
      <rect x="-22" y="-3" width="44" height="6" rx="3"/>
      <circle cx="-22" cy="-3" r="4"/>
      <circle cx="-22" cy="3" r="4"/>
      <circle cx="22" cy="-3" r="4"/>
      <circle cx="22" cy="3" r="4"/>
    </g>
    <g transform="translate(32 46) rotate(30)">
      <rect x="-22" y="-3" width="44" height="6" rx="3"/>
      <circle cx="-22" cy="-3" r="4"/>
      <circle cx="-22" cy="3" r="4"/>
      <circle cx="22" cy="-3" r="4"/>
      <circle cx="22" cy="3" r="4"/>
    </g>
  </g>

  <!-- Skull -->
  <g>
    <ellipse cx="32" cy="26" rx="14" ry="13" fill="#f8fafc"/>
    <rect x="22" y="32" width="20" height="9" rx="3" fill="#f8fafc"/>
    <ellipse cx="26" cy="26" rx="3.6" ry="4.2" fill="#0f172a"/>
    <ellipse cx="38" cy="26" rx="3.6" ry="4.2" fill="#0f172a"/>
    <path d="M30 31 L32 35 L34 31 Z" fill="#0f172a"/>
    <rect x="25" y="34" width="14" height="2" fill="#0f172a"/>
    <line x1="29" y1="34" x2="29" y2="40" stroke="#0f172a" stroke-width="1.6"/>
    <line x1="32" y1="34" x2="32" y2="40" stroke="#0f172a" stroke-width="1.6"/>
    <line x1="35" y1="34" x2="35" y2="40" stroke="#0f172a" stroke-width="1.6"/>
  </g>
</svg>
